<svg width="20" height="20" viewBox="0 0 128 128" fill="none" xmlns="http://www.w3.org/2000/svg">
  <rect width="128" height="128" rx="64" fill="#4C44C8"/>
  <path d="M110.583 64.4677C110.583 60.0465 107.005 56.4677 102.583 56.4677H89.847C87.6099 56.4677 85.7593 54.7547 85.5928 52.5237C85.4476 50.5579 87.0195 48.8347 88.97 48.6077C89.1259 48.5896 89.2814 48.5786 89.437 48.5757H102.583C116.505 48.5757 127.792 59.8615 127.792 73.7826V82.6188C127.792 83.4456 127.124 84.1126 126.297 84.1126H114.063C113.304 84.1126 112.657 83.5621 112.518 82.8149C112.499 82.7182 112.488 82.6196 112.488 82.5199V73.7826C112.488 73.7826 112.488 73.7827 112.488 73.7826C112.488 68.5728 108.24 64.336 103.029 64.336C102.865 64.336 102.702 64.342 102.539 64.3536C102.522 64.3546 102.505 64.3558 102.488 64.357C102.471 64.3581 102.455 64.3594 102.438 64.3608C99.3997 64.5608 96.8246 66.4624 95.7572 69.1487C95.4815 69.8047 95.3059 70.5092 95.2414 71.2473C95.2025 71.6666 95.1874 72.0914 95.1958 72.5195C95.2009 72.7582 95.2146 72.9951 95.2366 73.2299C95.2373 73.2382 95.2379 73.2462 95.2386 73.2544C95.5351 76.6251 98.1161 79.3563 101.452 79.8599C101.974 79.9398 102.495 79.9773 103.022 79.9773H114.063C118.485 79.9773 122.063 83.5557 122.063 87.9764V94.4361C122.063 99.7274 117.772 104.001 112.479 104.001H63.6408C58.348 104.001 54.0574 99.7275 54.0574 94.4362V87.9764C54.0574 83.5558 57.6358 79.9773 62.0565 79.9773H85.8495C90.2702 79.9773 93.8486 76.3989 93.8486 71.9782V71.9696C93.8486 67.5489 90.2702 63.9701 85.8495 63.9701H25.5269C20.2341 63.9701 15.9434 59.6967 15.9434 54.4051V25.5642C15.9434 20.2729 20.2344 15.9995 25.5269 15.9995H63.6408C68.9336 15.9995 73.2242 20.2729 73.2242 25.5642V32.0242C73.2242 36.445 69.6455 40.0235 65.2247 40.0235H41.432C37.0113 40.0235 33.4329 43.6022 33.4329 48.0231V48.0316C33.4329 52.4524 37.0113 56.031 41.432 56.031H101.755C106.175 56.031 109.754 59.6092 109.754 64.0295C109.754 64.1759 109.766 64.3199 109.789 64.461C110.303 64.5016 110.583 64.4677 110.583 64.4677Z" fill="white"/>
</svg> 